<?xml version="1.0" encoding="iso-8859-1"?>
<!-- Generator: Adobe Illustrator 19.0.0, SVG Export Plug-In . SVG Version: 6.00 Build 0)  -->
<svg version="1.1" id="Capa_1" xmlns="http://www.w3.org/2000/svg" xmlns:xlink="http://www.w3.org/1999/xlink" x="0px" y="0px"
	 viewBox="0 0 512 512" style="enable-background:new 0 0 512 512;" xml:space="preserve">
<g>
	<g>
		<g>
			<path d="M128,8.533C128,3.814,124.177,0,119.467,0H102.4c-4.71,0-8.533,3.814-8.533,8.533s3.823,8.533,8.533,8.533h17.067
				C124.177,17.067,128,13.252,128,8.533z"/>
			<path d="M76.8,8.533C76.8,3.814,72.977,0,68.267,0H51.2c-4.898,0-9.754,0.691-14.421,2.057c-4.523,1.323-7.117,6.067-5.794,10.59
				c1.084,3.729,4.489,6.135,8.183,6.135c0.794,0,1.604-0.111,2.406-0.341c3.106-0.913,6.349-1.374,9.626-1.374h17.067
				C72.977,17.067,76.8,13.252,76.8,8.533z"/>
			<path d="M82.901,494.933H65.835c-4.71,0-8.533,3.814-8.533,8.533c0,4.719,3.823,8.533,8.533,8.533h17.067
				c4.71,0,8.533-3.814,8.533-8.533C91.435,498.748,87.612,494.933,82.901,494.933z"/>
			<path d="M134.101,494.933h-17.067c-4.71,0-8.533,3.814-8.533,8.533c0,4.719,3.823,8.533,8.533,8.533h17.067
				c4.71,0,8.533-3.814,8.533-8.533C142.635,498.748,138.812,494.933,134.101,494.933z"/>
			<path d="M230.4,8.533c0-4.719-3.823-8.533-8.533-8.533H204.8c-4.71,0-8.533,3.814-8.533,8.533s3.823,8.533,8.533,8.533h17.067
				C226.577,17.067,230.4,13.252,230.4,8.533z"/>
			<path d="M236.501,494.933h-17.067c-4.71,0-8.533,3.814-8.533,8.533c0,4.719,3.823,8.533,8.533,8.533h17.067
				c4.71,0,8.533-3.814,8.533-8.533C245.035,498.748,241.212,494.933,236.501,494.933z"/>
			<path d="M36.147,491.435c-4.105-2.022-7.723-4.813-10.743-8.294c-3.089-3.567-8.482-3.959-12.041-0.853
				c-3.558,3.089-3.942,8.474-0.853,12.032c4.523,5.205,9.941,9.395,16.094,12.425c1.212,0.597,2.5,0.879,3.763,0.879
				c3.149,0,6.178-1.749,7.663-4.753C42.112,498.637,40.38,493.517,36.147,491.435z"/>
			<path d="M185.301,494.933h-17.067c-4.71,0-8.533,3.814-8.533,8.533c0,4.719,3.823,8.533,8.533,8.533h17.067
				c4.71,0,8.533-3.814,8.533-8.533C193.835,498.748,190.012,494.933,185.301,494.933z"/>
			<path d="M179.2,8.533c0-4.719-3.823-8.533-8.533-8.533H153.6c-4.71,0-8.533,3.814-8.533,8.533s3.823,8.533,8.533,8.533h17.067
				C175.377,17.067,179.2,13.252,179.2,8.533z"/>
			<path d="M8.533,209.673c4.71,0,8.533-3.814,8.533-8.533v-17.067c0-4.719-3.823-8.533-8.533-8.533S0,179.354,0,184.073v17.067
				C0,205.858,3.823,209.673,8.533,209.673z"/>
			<path d="M281.6,8.533c0-4.719-3.823-8.533-8.533-8.533H256c-4.71,0-8.533,3.814-8.533,8.533s3.823,8.533,8.533,8.533h17.067
				C277.777,17.067,281.6,13.252,281.6,8.533z"/>
			<path d="M8.533,158.473c4.71,0,8.533-3.814,8.533-8.533v-17.067c0-4.719-3.823-8.533-8.533-8.533S0,128.154,0,132.873v17.067
				C0,154.658,3.823,158.473,8.533,158.473z"/>
			<path d="M8.533,107.273c4.71,0,8.533-3.814,8.533-8.533V81.673c0-4.719-3.823-8.533-8.533-8.533S0,76.954,0,81.673v17.067
				C0,103.458,3.823,107.273,8.533,107.273z"/>
			<path d="M7.97,56.038c0.239,0.026,0.486,0.034,0.725,0.034c4.386,0,8.115-3.362,8.491-7.817
				c0.393-4.565,1.672-8.943,3.814-12.996c2.202-4.173,0.614-9.327-3.558-11.529c-4.164-2.219-9.327-0.614-11.529,3.558
				c-3.226,6.093-5.146,12.663-5.726,19.533C-0.213,51.516,3.268,55.646,7.97,56.038z"/>
			<path d="M8.533,260.873c4.71,0,8.533-3.814,8.533-8.533v-17.067c0-4.719-3.823-8.533-8.533-8.533S0,230.554,0,235.273v17.067
				C0,257.058,3.823,260.873,8.533,260.873z"/>
			<path d="M17.067,457.139v-17.067c0-4.719-3.823-8.533-8.533-8.533S0,435.354,0,440.073v17.067c0,4.719,3.823,8.533,8.533,8.533
				S17.067,461.858,17.067,457.139z"/>
			<path d="M8.533,414.473c4.71,0,8.533-3.814,8.533-8.533v-17.067c0-4.719-3.823-8.533-8.533-8.533S0,384.154,0,388.873v17.067
				C0,410.658,3.823,414.473,8.533,414.473z"/>
			<path d="M8.533,363.273c4.71,0,8.533-3.814,8.533-8.533v-17.067c0-4.719-3.823-8.533-8.533-8.533S0,332.954,0,337.673v17.067
				C0,359.458,3.823,363.273,8.533,363.273z"/>
			<path d="M8.533,312.073c4.71,0,8.533-3.814,8.533-8.533v-17.067c0-4.719-3.823-8.533-8.533-8.533S0,281.754,0,286.473v17.067
				C0,308.258,3.823,312.073,8.533,312.073z"/>
			<path d="M503.467,282.82c-4.71,0-8.533,3.814-8.533,8.533v17.067c0,4.719,3.823,8.533,8.533,8.533S512,313.131,512,308.42
				v-17.067C512,286.635,508.177,282.82,503.467,282.82z"/>
			<path d="M503.467,334.02c-4.71,0-8.533,3.814-8.533,8.533v17.067c0,4.719,3.823,8.533,8.533,8.533S512,364.331,512,359.62
				v-17.067C512,337.835,508.177,334.02,503.467,334.02z"/>
			<path d="M287.701,494.933h-17.067c-4.71,0-8.533,3.814-8.533,8.533c0,4.719,3.823,8.533,8.533,8.533h17.067
				c4.71,0,8.533-3.814,8.533-8.533C296.235,498.748,292.412,494.933,287.701,494.933z"/>
			<path d="M503.467,385.22c-4.71,0-8.533,3.814-8.533,8.533v17.067c0,4.719,3.823,8.533,8.533,8.533S512,415.531,512,410.82
				v-17.067C512,389.035,508.177,385.22,503.467,385.22z"/>
			<path d="M508.527,32.614c-1.715-4.386-6.673-6.571-11.051-4.847c-4.395,1.707-6.571,6.656-4.855,11.051
				c1.536,3.942,2.313,8.107,2.313,12.382v1.22c0,4.719,3.823,8.533,8.533,8.533S512,57.131,512,52.42V51.2
				C512,44.8,510.831,38.554,508.527,32.614z"/>
			<path d="M503.467,78.02c-4.71,0-8.533,3.814-8.533,8.533v17.067c0,4.719,3.823,8.533,8.533,8.533S512,108.331,512,103.62V86.554
				C512,81.835,508.177,78.02,503.467,78.02z"/>
			<path d="M503.467,180.42c-4.71,0-8.533,3.814-8.533,8.533v17.067c0,4.719,3.823,8.533,8.533,8.533S512,210.731,512,206.02
				v-17.067C512,184.235,508.177,180.42,503.467,180.42z"/>
			<path d="M503.467,436.42c-4.71,0-8.533,3.814-8.533,8.533l-0.017,16.845c-0.12,4.71,3.601,8.627,8.311,8.755
				c0.077,0,0.154,0,0.23,0c4.608,0,8.405-3.678,8.525-8.311L512,444.954C512,440.235,508.177,436.42,503.467,436.42z"/>
			<path d="M503.467,129.22c-4.71,0-8.533,3.814-8.533,8.533v17.067c0,4.719,3.823,8.533,8.533,8.533S512,159.531,512,154.82
				v-17.067C512,133.035,508.177,129.22,503.467,129.22z"/>
			<path d="M503.467,231.62c-4.71,0-8.533,3.814-8.533,8.533v17.067c0,4.719,3.823,8.533,8.533,8.533S512,261.931,512,257.22
				v-17.067C512,235.435,508.177,231.62,503.467,231.62z"/>
			<path d="M338.901,494.933h-17.067c-4.71,0-8.533,3.814-8.533,8.533c0,4.719,3.823,8.533,8.533,8.533h17.067
				c4.71,0,8.533-3.814,8.533-8.533C347.435,498.748,343.612,494.933,338.901,494.933z"/>
			<path d="M390.101,494.933h-17.067c-4.71,0-8.533,3.814-8.533,8.533c0,4.719,3.823,8.533,8.533,8.533h17.067
				c4.71,0,8.533-3.814,8.533-8.533C398.635,498.748,394.812,494.933,390.101,494.933z"/>
			<path d="M384,8.533C384,3.814,380.177,0,375.467,0H358.4c-4.71,0-8.533,3.814-8.533,8.533s3.823,8.533,8.533,8.533h17.067
				C380.177,17.067,384,13.252,384,8.533z"/>
			<path d="M332.8,8.533c0-4.719-3.823-8.533-8.533-8.533H307.2c-4.71,0-8.533,3.814-8.533,8.533s3.823,8.533,8.533,8.533h17.067
				C328.977,17.067,332.8,13.252,332.8,8.533z"/>
			<path d="M441.301,494.933h-17.067c-4.71,0-8.533,3.814-8.533,8.533c0,4.719,3.823,8.533,8.533,8.533h17.067
				c4.71,0,8.533-3.814,8.533-8.533C449.835,498.748,446.012,494.933,441.301,494.933z"/>
			<path d="M477.406,20.429c3.319,0,6.485-1.954,7.859-5.197c1.843-4.343-0.188-9.353-4.523-11.196C474.428,1.357,467.721,0,460.8,0
				c-4.71,0-8.533,3.814-8.533,8.533s3.823,8.533,8.533,8.533c4.617,0,9.088,0.896,13.278,2.688
				C475.162,20.215,476.297,20.429,477.406,20.429z"/>
			<path d="M435.2,8.533c0-4.719-3.823-8.533-8.533-8.533H409.6c-4.71,0-8.533,3.814-8.533,8.533s3.823,8.533,8.533,8.533h17.067
				C431.377,17.067,435.2,13.252,435.2,8.533z"/>
			<path d="M483.883,485.948c-3.396,3.115-7.305,5.478-11.614,7.023c-4.437,1.579-6.741,6.468-5.154,10.906
				c1.246,3.49,4.531,5.658,8.03,5.658c0.956,0,1.929-0.162,2.876-0.495c6.46-2.304,12.314-5.845,17.399-10.505
				c3.473-3.191,3.712-8.585,0.521-12.058C492.757,483.004,487.356,482.773,483.883,485.948z"/>
		</g>
	</g>
</g>
<g>
	<g>
		<path d="M227.9,284.1c-3.328-3.337-8.738-3.337-12.066,0l-153.6,153.6c-3.336,3.337-3.336,8.73,0,12.066
			c1.664,1.664,3.849,2.5,6.033,2.5s4.369-0.836,6.033-2.5l153.6-153.6C231.236,292.83,231.236,287.437,227.9,284.1z"/>
	</g>
</g>
<g>
	<g>
		<path d="M170.667,435.2H76.8v-93.867c0-4.719-3.823-8.533-8.533-8.533s-8.533,3.814-8.533,8.533v102.4
			c0,4.719,3.823,8.533,8.533,8.533h102.4c4.71,0,8.533-3.814,8.533-8.533C179.2,439.014,175.377,435.2,170.667,435.2z"/>
	</g>
</g>
<g>
	<g>
		<path d="M449.766,62.234c-3.328-3.337-8.738-3.337-12.066,0l-153.6,153.6c-3.337,3.337-3.337,8.73,0,12.066
			c1.664,1.664,3.849,2.5,6.033,2.5c2.185,0,4.369-0.836,6.033-2.5l153.6-153.6C453.103,70.963,453.103,65.57,449.766,62.234z"/>
	</g>
</g>
<g>
	<g>
		<path d="M443.733,59.733h-102.4c-4.71,0-8.533,3.814-8.533,8.533s3.823,8.533,8.533,8.533H435.2v93.867
			c0,4.719,3.823,8.533,8.533,8.533s8.533-3.814,8.533-8.533v-102.4C452.267,63.548,448.444,59.733,443.733,59.733z"/>
	</g>
</g>
<g>
</g>
<g>
</g>
<g>
</g>
<g>
</g>
<g>
</g>
<g>
</g>
<g>
</g>
<g>
</g>
<g>
</g>
<g>
</g>
<g>
</g>
<g>
</g>
<g>
</g>
<g>
</g>
<g>
</g>
</svg>
